<?xml version="1.0" encoding="iso-8859-1"?>
<!-- Generator: Adobe Illustrator 17.1.0, SVG Export Plug-In . SVG Version: 6.00 Build 0)  -->
<!DOCTYPE svg PUBLIC "-//W3C//DTD SVG 1.1//EN" "http://www.w3.org/Graphics/SVG/1.1/DTD/svg11.dtd">
<svg version="1.1" id="Capa_1" xmlns="http://www.w3.org/2000/svg" xmlns:xlink="http://www.w3.org/1999/xlink" x="0px" y="0px"
	 viewBox="0 0 295.713 295.713" style="enable-background:new 0 0 295.713 295.713;" xml:space="preserve">
<g>
	<path d="M147.632,0C69.994,0,6.34,59.865,0.3,135.951c0.5,0.375-2.543,11.857,8.827,11.857c0.385,0,0.747-0.005,1.114-0.022
		c0.311,0.027,0.624,0.067,0.953,0.067h95.771l-9.601,103.979c-8.438,3.325-14.412,11.531-14.412,21.148
		c0,12.557,10.183,22.732,22.739,22.732c12.559,0,22.741-10.185,22.741-22.741c0-1.091-0.082-2.163-0.23-3.214l54.339-36.892
		l73.692,15.204c21.789-27.592,39.201-67.05,39.201-100.262C295.435,66.176,229.261,0,147.632,0z M126.28,157.831l40.264,61.536
		l-49.017,33.277L126.28,157.831z M121.792,116.033c5.563,0,10.072,4.508,10.072,10.068c0,5.564-4.51,10.074-10.072,10.074
		c-5.565,0-10.075-4.51-10.075-10.074C111.717,120.541,116.226,116.033,121.792,116.033z M195.176,218.865
		c-5.564,0-10.073-4.51-10.073-10.072s4.51-10.072,10.073-10.072c5.564,0,10.074,4.51,10.074,10.072
		S200.741,218.865,195.176,218.865z M250.344,122.59c-1.154,0.428-2.337,0.631-3.5,0.631c-4.095,0-7.944-2.515-9.45-6.579
		c-11.301-30.497-36.065-54.183-64.631-61.813c-1.746-0.468-3.556-0.888-5.389-1.25c-5.46-1.077-9.013-6.377-7.935-11.837
		c1.077-5.46,6.379-9.017,11.837-7.935c2.274,0.448,4.527,0.972,6.697,1.554c34.77,9.286,64.783,37.749,78.318,74.278
		C258.226,114.858,255.563,120.656,250.344,122.59z"/>
</g>
<g>
</g>
<g>
</g>
<g>
</g>
<g>
</g>
<g>
</g>
<g>
</g>
<g>
</g>
<g>
</g>
<g>
</g>
<g>
</g>
<g>
</g>
<g>
</g>
<g>
</g>
<g>
</g>
<g>
</g>
</svg>
