<?xml version="1.0" encoding="iso-8859-1"?>
<!-- Generator: Adobe Illustrator 19.0.0, SVG Export Plug-In . SVG Version: 6.00 Build 0)  -->
<svg version="1.1" id="Layer_1" xmlns="http://www.w3.org/2000/svg" xmlns:xlink="http://www.w3.org/1999/xlink" x="0px" y="0px"
	 viewBox="0 0 512.012 512.012" style="enable-background:new 0 0 512.012 512.012;" xml:space="preserve">
<g transform="translate(0 -1)">
	<g>
		<g>
			<path d="M502.059,376.636c7.475-3.422,11.298-11.068,9.523-19.012c-1.758-7.91-8.781-13.363-17.007-13.013
				c5.188-6.229,5.325-14.694,0.358-21.077v-39.851c0-6.204-0.64-12.254-1.783-18.133H435.2c-4.71,0-8.533-3.814-8.533-8.533
				c0-4.71,3.823-8.533,8.533-8.533h52.89c-14.012-34.953-48.179-59.733-88.09-59.733h-75.733v-68.267
				c0-4.71-3.814-8.533-8.533-8.533c-4.71,0-8.533,3.823-8.533,8.533v60.228l-39.518-28.228l12.484-18.731
				c2.611-3.925,1.553-9.216-2.364-11.836c-3.934-2.611-9.225-1.553-11.836,2.372l-34.133,51.2
				c-2.611,3.925-1.553,9.216,2.372,11.827c1.451,0.973,3.098,1.434,4.719,1.434c2.765,0,5.461-1.331,7.108-3.797l12.186-18.27
				l48.981,34.995v80.939h32c10.59,0,19.2,8.619,19.2,19.2v21.726c-4.958,6.383-4.821,14.839,0.256,20.787h-0.179
				c-8.107,0-14.967,5.444-16.725,13.295c-0.811,3.652-0.401,7.211,0.964,10.325h-69.649v-25.6
				c0-66.551-42.633-123.204-101.965-144.478L97.809,69.265c-4.548-7.868-11.904-13.508-20.727-15.872
				c-8.832-2.389-18.031-1.169-25.899,3.379C34.893,66.185,29.278,87.1,38.682,103.39l50.756,88.439
				c-25.267,5.043-49.067,16.29-68.958,33.067c-3.601,3.038-4.053,8.422-1.015,12.023c3.029,3.601,8.405,4.062,12.023,1.024
				c23.876-20.147,54.093-31.394,85.333-32.009c1.988-0.051,3.934,0.034,5.897,0.051C196.489,207.736,256,268.169,256,342.349v25.6
				h-23.629c-1.468-3.678-4.275-6.793-8.218-8.644c8.457-1.314,14.353-8.192,14.353-16.742c0-8.542-5.896-15.428-14.31-16.495
				c7.637-3.857,11.119-12.22,8.474-20.36c-2.645-8.132-10.377-12.834-18.714-11.255c6.067-6.025,6.801-15.053,1.783-21.973
				c-5.035-6.929-13.85-9.02-21.282-4.941c3.908-7.603,1.809-16.418-5.103-21.444c-6.921-5.043-15.957-4.318-21.76,1.877
				c1.365-8.439-3.362-16.179-11.486-18.825c-8.141-2.611-16.503,0.836-20.096,8.602l-0.017-0.085
				c-1.314-8.448-8.192-14.353-16.742-14.353s-15.437,5.905-16.495,14.31c-3.857-7.637-12.245-11.119-20.361-8.465
				c-8.132,2.637-12.851,10.385-11.264,18.705c-6.025-6.067-15.061-6.784-21.973-1.775c-6.921,5.035-9.02,13.85-4.941,21.274
				c-7.578-3.908-16.41-1.801-21.444,5.12c-5.026,6.921-4.292,15.949,1.886,21.751c-8.431-1.365-16.179,3.345-18.816,11.477
				c-2.645,8.132,0.836,16.503,8.508,20.122C5.905,327.134,0,334.02,0,342.562c0,8.55,5.905,15.428,14.31,16.495
				c-7.629,3.866-11.11,12.237-8.465,20.369c2.645,8.124,10.419,12.868,18.705,11.264c-6.076,6.025-6.801,15.061-1.775,21.982
				c5.043,6.921,13.867,9.003,21.274,4.924c-3.908,7.603-1.809,16.427,5.111,21.444c6.929,5.026,15.957,4.301,21.76-1.877
				c-1.374,8.431,3.345,16.171,11.477,18.816c8.132,2.628,16.503-0.845,20.113-8.516c1.306,8.457,8.192,14.353,16.742,14.353
				s15.437-5.896,16.495-14.31c3.857,7.629,12.211,11.085,20.361,8.482c8.124-2.645,12.851-10.385,11.264-18.714
				c6.033,6.05,15.078,6.784,21.973,1.766c6.921-5.018,9.02-13.841,4.932-21.282c7.603,3.925,16.427,1.818,21.453-5.086
				c5.026-6.929,4.301-15.957-1.886-21.769c6.229,1.007,12.075-1.323,15.778-5.888h113.075c-1.348,3.14-1.758,6.699-0.947,10.334
				c1.766,7.919,8.815,13.244,17.007,13.013c-5.197,6.238-5.333,14.729-0.333,21.12c5.043,6.443,13.704,8.439,21.248,4.642
				c-1.928,7.859,1.698,15.556,9.02,19.14c7.339,3.618,16,1.698,21.248-4.753c1.766,7.953,8.491,13.303,16.725,13.303
				c8.243,0,14.967-5.35,16.905-13.218c5.069,6.357,13.722,8.286,21.069,4.676c7.322-3.593,10.948-11.29,9.19-18.927
				c7.381,3.575,16.051,1.579,21.077-4.864c5-6.391,4.864-14.882-0.222-20.838c7.996,0.222,15.13-5.385,16.896-13.295
				C513.357,387.405,509.534,379.759,502.059,376.636z M119.467,410.616c-37.641,0-68.267-30.618-68.267-68.267
				c0-37.641,30.626-68.267,68.267-68.267c37.641,0,68.267,30.626,68.267,68.267C187.733,379.998,157.107,410.616,119.467,410.616z
				 M494.857,391.578h-0.188c-6.716,0-12.638,3.729-15.497,9.754c-2.833,5.982-1.954,12.86,2.091,17.647
				c-6.093-2.953-13.133-2.142-18.381,2.116c-5.137,4.156-7.356,10.709-5.973,16.87c-4.156-5.222-10.803-7.535-17.34-6.016
				c-6.485,1.502-11.401,6.426-12.971,12.86c-1.425-6.426-6.34-11.358-12.817-12.86c-1.323-0.299-2.654-0.444-3.959-0.444
				c-5.18,0-10.112,2.338-13.577,6.682c1.57-6.383-0.649-12.937-5.786-17.092c-5.256-4.241-12.288-5.043-18.594-1.809
				c4.258-5.094,5.137-11.972,2.304-17.954c-2.884-6.084-8.875-9.933-15.778-9.481c6.118-2.807,9.916-8.695,9.916-15.369
				c0-6.665-3.797-12.553-9.822-15.087c6.485-0.23,12.8-3.669,15.684-9.754c2.833-5.982,1.954-12.86-2.091-17.647
				c6.093,2.944,13.133,2.133,18.381-2.116c2.569-2.082,4.403-4.753,5.427-7.68s1.229-6.101,0.538-9.173
				c1.169,1.459,2.56,2.62,4.062,3.601c3.849,2.526,8.576,3.482,13.286,2.389c2.065-0.478,3.891-1.399,5.581-2.517
				c3.61-2.372,6.315-5.956,7.381-10.342l0.009,0.009c1.425,6.426,6.332,11.358,12.817,12.851c6.545,1.51,13.193-0.785,17.527-6.229
				c-1.562,6.383,0.657,12.937,5.794,17.092c5.231,4.233,12.237,5.052,18.398,2.116c-4.053,5.06-4.89,11.776-2.108,17.647
				c2.884,6.084,8.798,9.779,15.778,9.481c-6.127,2.807-9.924,8.695-9.924,15.36C485.026,383.155,488.823,389.043,494.857,391.578z"
				/>
			<circle cx="426.669" cy="376.486" r="8.533"/>
			<path d="M119.469,291.152c-28.237,0-51.2,22.963-51.2,51.2c0,28.237,22.963,51.2,51.2,51.2s51.2-22.963,51.2-51.2
				C170.669,314.116,147.706,291.152,119.469,291.152z M119.469,359.419c-9.429,0-17.067-7.637-17.067-17.067
				s7.637-17.067,17.067-17.067s17.067,7.637,17.067,17.067S128.899,359.419,119.469,359.419z"/>
			<path d="M426.669,333.819c-23.526,0-42.667,19.14-42.667,42.667c0,23.526,19.14,42.667,42.667,42.667s42.667-19.14,42.667-42.667
				C469.336,352.959,450.196,333.819,426.669,333.819z M426.669,402.086c-14.114,0-25.6-11.486-25.6-25.6s11.486-25.6,25.6-25.6
				s25.6,11.486,25.6,25.6S440.783,402.086,426.669,402.086z"/>
		</g>
	</g>
</g>
<g>
</g>
<g>
</g>
<g>
</g>
<g>
</g>
<g>
</g>
<g>
</g>
<g>
</g>
<g>
</g>
<g>
</g>
<g>
</g>
<g>
</g>
<g>
</g>
<g>
</g>
<g>
</g>
<g>
</g>
</svg>
