<?xml version="1.0" encoding="iso-8859-1"?>
<!-- Generator: Adobe Illustrator 19.0.0, SVG Export Plug-In . SVG Version: 6.00 Build 0)  -->
<svg version="1.1" id="Layer_1" xmlns="http://www.w3.org/2000/svg" xmlns:xlink="http://www.w3.org/1999/xlink" x="0px" y="0px"
	 viewBox="0 0 512.001 512.001" style="enable-background:new 0 0 512.001 512.001;" xml:space="preserve">
<g>
	<g>
		<path d="M446.795,193.093c-10.168,0-18.409-8.241-18.409-18.408V33.947c0-5.648-2.487-11.008-6.8-14.653
			C394.127-3.921,368.996,0.317,317.915,0.317c-7.194,0-13.785,4.024-17.071,10.426L256,98.103l-44.843-87.361
			c-3.285-6.401-9.877-10.426-17.071-10.426c-50.728,0-76.109-4.324-103.671,18.977c-4.314,3.646-6.8,9.006-6.8,14.653v140.74
			c0,10.151-8.259,18.408-18.409,18.408c-10.597,0-19.188,8.591-19.188,19.188v280.53c0,10.597,8.591,19.188,19.188,19.188
			c5.423,0,376.535,0,381.589,0c10.597,0,19.188-8.591,19.188-19.188v-280.53C465.983,201.684,457.392,193.093,446.795,193.093z
			 M185.179,342.333h-49.146c-10.598,0-19.188-8.591-19.188-19.188c0-10.597,8.591-19.188,19.188-19.188h49.146
			c10.597,0,19.188,8.591,19.188,19.188C204.367,333.742,195.776,342.333,185.179,342.333z M221.516,473.623
			c13.389-17.13,25.449-35.787,34.383-55.896c8.847,19.663,18.369,36.401,33.743,55.896H221.516z M375.969,342.333h-49.146
			c-10.597,0-19.188-8.591-19.188-19.188c0-10.597,8.591-19.188,19.188-19.188h49.146c10.597,0,19.188,8.591,19.188,19.188
			C395.157,333.742,386.566,342.333,375.969,342.333z"/>
	</g>
</g>
<g>
</g>
<g>
</g>
<g>
</g>
<g>
</g>
<g>
</g>
<g>
</g>
<g>
</g>
<g>
</g>
<g>
</g>
<g>
</g>
<g>
</g>
<g>
</g>
<g>
</g>
<g>
</g>
<g>
</g>
</svg>
